<svg xmlns="http://www.w3.org/2000/svg" fill="none" viewBox="0 0 160 52" height="52" width="160">
<path fill="white" d="M145.705 25.2223V39.1854H138.859V0.539062H149.046C156.538 0.539062 159.772 3.44966 159.772 10.2949V15.0353C159.772 21.3955 156.646 25.2223 149.154 25.2223H145.705ZM145.705 6.80235V18.9645H148.777C151.526 18.9645 152.819 17.5092 152.819 14.7064V10.8448C152.819 7.88032 151.579 6.80235 148.777 6.80235H145.705Z"></path>
<path fill="white" d="M55.609 25.2223V39.1854H48.7637V0.539062H58.9508C66.4429 0.539062 69.677 3.44966 69.677 10.2949V15.0353C69.677 21.3955 66.5504 25.2223 59.0586 25.2223H55.609ZM55.609 6.80235V18.9645H58.6813C61.4302 18.9645 62.7238 17.5092 62.7238 14.7064V10.8448C62.7238 7.88032 61.4841 6.80235 58.6813 6.80235H55.609Z"></path>
<path fill="white" d="M136.493 39.1854H118.113V0.539062H136.17V6.84537H125.012V16.6067H134.822V22.9669H125.012V32.6635H136.493V39.1854Z"></path>
<path fill="white" d="M81.9405 39.7782C73.909 39.7782 71.1602 36.2747 71.1602 29.6989V24.5245H78.3831V29.3359C78.3831 31.8153 79.2454 33.2706 82.048 33.2706C84.5818 33.2706 85.4441 31.7075 85.4441 29.5515V27.8124C85.4441 26.7344 85.1746 25.872 84.5818 25.0635C83.4493 23.6082 81.4552 22.5302 79.2992 21.4522C78.0598 20.8054 76.8198 20.1047 75.688 19.2423C73.3162 17.5714 71.5916 15.1998 71.5916 11.2112V9.59423C71.5916 3.6113 74.8795 0 81.8329 0C88.7857 0 91.9116 3.3957 91.9116 9.05521V13.2594H85.0664V9.93548C85.0664 7.40216 84.1503 6.27026 81.7785 6.27026C79.4611 6.27026 78.5444 7.77948 78.5444 10.0972V10.7261C78.5444 11.7502 78.8139 12.5587 79.4074 13.2055C80.5392 14.553 82.4795 15.5771 84.5818 16.6551C85.8211 17.3019 87.0067 18.0565 88.2467 18.865C90.6185 20.5359 92.3969 22.9614 92.3969 27.0039V29.9684C92.3969 36.113 88.8933 39.7782 81.9405 39.7782Z"></path>
<path fill="white" d="M34.7198 39.778C27.7667 39.778 23.5625 36.1667 23.5625 28.0278V11.8039C23.5625 3.88061 27.9284 0.0537109 34.7198 0.0537109C41.5112 0.0537109 45.8771 3.88061 45.8771 11.8039V28.0278C45.8771 36.1128 41.5112 39.778 34.7198 39.778ZM34.7198 32.8921C37.5226 32.8921 38.6545 31.3102 38.6545 27.3216V12.2944C38.6545 8.25193 37.5226 6.67003 34.7198 6.67003C31.8092 6.67003 30.7851 8.30584 30.7851 12.2944V27.3216C30.7851 31.3102 31.8092 32.8921 34.7198 32.8921Z"></path>
<path fill="white" d="M14.8616 6.94221V39.2283H7.90846V6.94221H0V0.582031H22.8239V6.94221H14.8616Z"></path>
<path fill="white" d="M108.127 6.94224V39.2283H101.174V6.94224H93.2656V0.582031H116.09V6.94224H108.127Z"></path>
</svg>
